<svg version="1.1" id="Layer_1" xmlns="http://www.w3.org/2000/svg" xmlns:xlink="http://www.w3.org/1999/xlink" x="0px" y="0px"
	 width="100%" viewBox="0 0 699 699" enable-background="new 0 0 699 699" xml:space="preserve">
<path fill="none" opacity="1.000000" stroke="#000000" stroke-linecap="round" stroke-linejoin="round" stroke-width="5.000000"
	d="
M465.500000,440.500000 
	C467.836334,444.298889 465.666840,447.579407 463.404602,449.907288 
	C452.102936,461.537048 443.465759,475.443756 431.547852,486.551361 
	C422.653229,494.841217 414.874878,504.333008 404.515045,511.023285 
	C399.542450,514.234558 394.498199,517.130066 389.092651,519.695251 
	C372.450195,527.592773 356.906006,537.396790 342.454102,548.942566 
	C331.592102,557.620239 318.522675,562.948608 307.192169,570.778076 
	C297.539734,577.448059 286.935669,577.219849 276.478241,578.861450 
	C273.789642,579.283447 270.836487,577.593323 267.999451,577.571350 
	C256.541718,577.482544 245.266159,578.188110 237.501541,588.501160 
	C230.358551,597.988525 219.769852,602.282410 209.478760,606.953186 
	C204.995300,608.988159 200.217606,608.371155 195.497589,607.513245 
	C185.522644,605.700256 175.354858,605.293945 165.470779,602.607483 
	C154.243423,599.556030 144.373779,594.755249 134.745422,587.855225 
	C122.648613,579.186157 114.977745,567.262573 106.752670,555.818420 
	C98.988243,545.015259 97.207611,531.748840 98.126137,518.508728 
	C98.474533,513.486816 98.102066,508.487274 98.539536,503.503479 
	C98.754448,501.055084 98.109840,497.670990 102.500000,498.250000 
"/>
<path fill="none" opacity="1.000000" stroke="#000000" stroke-linecap="round" stroke-linejoin="round" stroke-width="5.000000"
	d="
M457.500000,285.500000 
	C458.039825,290.036224 455.749908,293.921387 454.439362,297.980408 
	C449.641235,312.840942 447.382843,328.225586 444.406921,343.481842 
	C440.985199,361.023712 435.365509,377.820709 425.567810,393.043640 
	C421.752380,398.971771 416.258972,398.889801 410.501892,398.473816 
	C397.829132,397.558136 385.135101,396.790527 372.508850,395.418579 
	C359.798859,394.037506 347.188080,391.902557 335.999176,385.001343 
	C335.172089,384.491180 334.175293,384.152466 333.523743,383.477081 
	C323.850250,373.450104 310.806519,368.531860 299.563507,360.906342 
	C287.234314,352.544067 279.918457,341.107605 280.448578,325.498260 
	C280.736908,317.008057 280.453827,308.499664 280.513123,300.000092 
	C280.571350,291.653595 277.654572,284.469238 272.544006,277.965424 
	C270.277740,275.081299 267.109070,273.401520 264.471405,271.031830 
	C262.791809,269.522858 260.132568,269.288574 258.577332,270.141052 
	C253.772705,272.774658 248.580688,275.035278 246.405029,280.965149 
	C244.845245,285.216461 240.886871,288.867706 241.194031,293.487091 
	C241.583710,299.347290 240.000336,304.669067 238.408646,309.972595 
	C234.610825,322.626984 229.095779,334.386078 217.981735,342.474915 
	C212.778061,346.262146 206.282532,347.058838 200.428848,349.315430 
	C196.484253,350.835999 192.806137,352.832886 189.061981,354.629181 
	C182.008804,358.013000 183.227600,364.926025 183.587814,370.994781 
	C183.980652,377.612762 189.380051,380.161469 194.547394,382.390106 
	C196.072998,383.048035 197.860886,383.377594 199.510544,383.970642 
	C204.201462,385.657013 208.240463,384.017273 212.000000,381.250000 
"/>
<path fill="none" opacity="1.000000" stroke="#000000" stroke-linecap="round" stroke-linejoin="round" stroke-width="5.000000"
	d="
M127.500000,192.000000 
	C129.166092,193.634720 131.227051,194.122971 133.486420,194.568848 
	C141.106232,196.072525 148.751572,197.525284 156.009918,200.475616 
	C159.829193,202.028076 163.848846,202.794785 167.999329,202.490784 
	C173.697113,202.073425 179.170105,203.266891 184.482346,205.052505 
	C189.589401,206.769135 194.658401,207.368515 200.009689,206.564499 
	C203.223389,206.081650 206.567795,206.609253 209.466721,208.066223 
	C213.439163,210.062698 217.598801,210.058395 221.459000,208.867126 
	C226.789673,207.222092 231.714172,206.354172 236.513443,209.982224 
	C236.911789,210.283356 237.490219,210.435181 238.001511,210.484314 
	C243.496399,211.012146 245.313690,214.186951 247.337265,219.368286 
	C251.712234,230.570312 256.716431,242.001526 268.024200,248.457596 
	C274.809082,252.331360 282.058960,255.280777 290.001404,255.419891 
	C294.854675,255.504883 298.312744,252.153931 301.439789,248.941391 
	C304.074371,246.234848 306.573059,243.436401 309.460266,240.953796 
	C314.864014,236.307312 321.263763,236.138977 326.912720,238.693069 
	C338.782471,244.059769 350.583893,249.669846 363.049988,253.329758 
	C374.505463,256.692993 384.870972,263.290497 396.998322,264.516602 
	C397.344971,264.551666 397.697998,264.790192 397.995453,265.006256 
	C407.688202,272.046051 419.703308,271.887054 430.537994,275.382233 
	C437.086365,277.494690 444.097656,277.543945 451.000000,277.498779 
	C454.474792,277.476044 457.452637,277.537964 459.706421,281.378876 
	C461.369202,284.212585 465.576385,284.463470 468.392242,282.815857 
	C470.348663,281.671112 472.059692,281.569794 474.000214,281.506805 
	C489.850739,280.992401 505.635193,282.929108 521.502258,282.611938 
	C535.650208,282.329132 549.322876,279.572601 562.998657,276.493958 
	C569.506531,275.028931 576.165039,271.756439 582.466614,272.352844 
	C596.817261,273.711029 609.491882,265.840393 623.503235,266.422211 
	C624.597351,266.467682 625.382202,266.374420 626.549561,266.887085 
	C635.784302,270.942444 644.367676,276.262787 653.374268,280.752228 
	C657.883057,282.999664 660.871033,288.306122 662.856506,293.059937 
	C668.767212,307.211670 672.636108,322.046906 676.000000,337.000000 
"/>
<path fill="none" opacity="1.000000" stroke="#000000" stroke-linecap="round" stroke-linejoin="round" stroke-width="6.000000"
	d="
M307.500000,261.500000 
	C310.463409,261.984894 311.756866,259.607025 313.538940,257.964264 
	C315.476135,257.976440 316.902252,259.720032 319.002716,259.530151 
	C333.461761,258.223175 347.109650,262.947723 360.964844,265.678467 
	C372.148071,267.882568 383.343933,270.115936 394.510529,272.449646 
	C400.392059,273.678802 405.648163,276.032684 410.509644,279.486420 
	C416.566315,283.789307 415.976288,289.998413 414.911530,295.984253 
	C413.225372,305.463409 413.253357,314.988556 413.605774,324.496094 
	C413.853180,331.170197 415.542480,337.761963 415.501251,344.500000 
	C415.460907,351.087097 414.439301,352.050903 408.005188,353.033936 
	C392.793854,355.357880 377.690369,354.068298 362.483856,352.676270 
	C352.874115,351.796539 343.493256,349.883026 333.996155,348.526855 
	C325.269135,347.280609 318.148193,342.476898 311.685486,337.269806 
	C307.242584,333.690094 306.246857,327.169281 305.594055,321.489197 
	C303.406342,302.452606 303.701416,283.520142 309.463562,264.988678 
	C309.747101,264.076843 309.500000,263.000000 309.500000,262.000000 
"/>
<path fill="none" opacity="1.000000" stroke="#000000" stroke-linecap="round" stroke-linejoin="round" stroke-width="5.000000"
	d="
M91.000000,227.000000 
	C94.986687,235.531281 97.372284,244.769379 102.056282,252.967850 
	C106.673271,261.049042 107.322571,270.690918 112.500328,278.499786 
	C115.859375,283.565765 120.338478,287.046570 125.948380,289.612823 
	C134.478912,293.515076 142.260666,299.529480 151.100433,302.162903 
	C162.750961,305.633667 174.876251,307.530151 186.107300,298.635468 
	C198.064758,289.165527 205.373230,276.704071 212.031586,263.515930 
	C216.701309,254.266678 221.701981,245.185028 226.483795,235.991577 
	C228.591232,231.939896 227.951889,231.120407 223.525269,229.907761 
	C221.288895,229.295105 219.156662,229.559402 216.999664,229.542648 
	C202.659897,229.431290 188.299088,229.942368 174.002502,228.475586 
	C151.389862,226.155594 128.661057,225.930069 105.998970,224.516510 
	C100.889557,224.197784 95.888206,224.994873 91.000000,226.500000 
"/>
<path fill="none" opacity="1.000000" stroke="#000000" stroke-linecap="round" stroke-linejoin="round" stroke-width="5.000000"
	d="
M68.000000,238.000000 
	C71.701462,241.842834 70.693062,246.989517 71.364632,251.520065 
	C73.671349,267.081665 72.428177,283.035980 75.669380,298.464417 
	C77.518883,307.268219 77.934509,317.280975 87.498322,322.503082 
	C88.677444,323.146912 89.905846,324.508209 90.988380,324.391876 
	C98.777100,323.554932 106.089981,327.778931 114.026833,326.129089 
	C118.848267,325.126801 123.423485,328.423523 128.508118,328.151794 
	C132.655472,327.930176 136.686493,329.273651 140.565338,331.379669 
	C145.710922,334.173462 151.224838,331.906799 156.484253,330.916351 
	C159.637619,330.322510 162.688431,330.384521 165.453568,331.605194 
	C167.907013,332.688293 170.142059,332.682434 172.494568,331.981781 
	C179.629547,329.856781 187.051437,330.774323 193.936768,331.890167 
	C199.910065,332.858215 204.161835,331.489502 207.934021,327.930084 
	C217.563370,318.843811 226.637268,309.206299 234.505478,298.504028 
	C236.087021,296.352844 237.490891,293.955750 240.500000,293.500000 
"/>
<path fill="none" opacity="1.000000" stroke="#000000" stroke-linecap="round" stroke-linejoin="round" stroke-width="5.000000"
	d="
M126.500000,464.500000 
	C125.923668,474.948486 128.671753,484.192322 137.027634,490.965912 
	C155.071457,505.592834 176.465790,511.605316 199.006561,514.447937 
	C200.107941,514.586792 201.418564,514.197693 202.507217,514.142517 
	C209.495270,513.788452 216.275330,511.769165 223.546402,513.276062 
	C230.477661,514.712585 237.722076,513.031616 244.451324,510.849854 
	C248.278549,509.608917 252.454254,509.749878 256.051056,507.584839 
	C257.153290,506.921417 258.612762,507.752350 259.511597,508.991608 
	C261.864441,512.235596 263.605530,512.466553 265.950836,509.461609 
	C268.019104,506.811676 269.845825,503.927277 271.406281,500.950867 
	C271.979919,499.856689 272.424072,499.454315 273.500000,499.500000 
"/>
<path fill="none" opacity="1.000000" stroke="#000000" stroke-linecap="round" stroke-linejoin="round" stroke-width="5.000000"
	d="
M86.500000,331.500000 
	C80.317986,352.780640 79.555283,374.616577 80.666313,396.491547 
	C81.202095,407.040527 83.119469,417.571655 85.080452,427.984863 
	C88.976761,448.674988 94.618477,468.939972 100.964386,489.011261 
	C101.834381,491.762970 102.240494,494.666656 101.000000,497.500000 
"/>
<path fill="none" opacity="1.000000" stroke="#000000" stroke-linecap="round" stroke-linejoin="round" stroke-width="5.000000"
	d="
M383.000000,164.000000 
	C396.324768,170.937088 408.688660,179.661499 422.105560,186.286194 
	C438.903931,194.580505 451.038025,207.738693 463.643799,220.861862 
	C473.990814,231.633575 481.344757,243.985138 486.906616,257.538330 
	C489.893433,264.816620 491.875092,272.498169 492.000000,280.500000 
"/>
<path fill="none" opacity="1.000000" stroke="#000000" stroke-linecap="round" stroke-linejoin="round" stroke-width="5.000000"
	d="
M134.500000,462.500000 
	C139.509521,457.808838 139.953583,457.676392 144.985046,461.519562 
	C156.521957,470.331787 170.238449,474.510010 183.547897,479.368805 
	C194.890701,483.509613 206.181015,488.085510 218.488434,489.135620 
	C222.135971,489.446838 225.913284,489.938873 229.521805,490.220367 
	C235.334534,490.673706 240.110992,493.061340 244.972885,495.552917 
	C248.231430,497.222809 251.350739,498.039093 255.014587,497.054291 
	C259.089905,495.958862 263.330872,496.598511 267.500153,496.506622 
	C269.672974,496.458740 271.201263,497.448120 272.000000,499.500000 
"/>
<path fill="none" opacity="1.000000" stroke="#000000" stroke-linecap="round" stroke-linejoin="round" stroke-width="5.000000"
	d="
M495.000000,308.000000 
	C494.666656,317.166656 494.467957,326.340729 493.965149,335.498077 
	C493.367340,346.384857 492.172974,357.209991 490.563446,368.009460 
	C488.143799,384.244751 482.478485,399.101807 472.977753,412.484192 
	C472.652863,412.941864 472.000031,413.166718 471.500031,413.500031 
"/>
<path fill="none" opacity="1.000000" stroke="#000000" stroke-linecap="round" stroke-linejoin="round" stroke-width="5.000000"
	d="
M242.000000,139.500000 
	C238.063889,137.302612 234.270889,139.436417 230.512756,140.075043 
	C222.886566,141.370941 215.763672,144.464554 208.511703,147.033051 
	C196.035828,151.451782 183.605225,156.169815 172.069214,162.623703 
	C156.901764,171.109238 141.690979,179.649673 128.046677,190.558380 
	C125.593048,192.520065 123.138000,192.736816 120.511703,191.960403 
	C111.025116,189.155762 101.197357,189.448700 91.509102,188.414719 
	C81.102753,187.304077 75.233246,193.150681 70.542625,201.025391 
	C67.645935,205.888382 64.931061,210.891479 62.564266,216.029602 
	C60.045654,221.497314 60.107609,227.378922 61.000000,233.250000 
"/>
<path fill="none" opacity="1.000000" stroke="#000000" stroke-linecap="round" stroke-linejoin="round" stroke-width="5.000000"
	d="
M590.500000,273.500000 
	C588.769226,277.813477 584.214966,277.922974 580.944885,278.792694 
	C563.205383,283.510681 546.550537,291.279755 529.044189,296.644287 
	C519.559387,299.550720 510.188080,302.800842 500.498260,304.992340 
	C496.854248,305.816498 496.159668,305.054443 496.984619,301.496429 
	C497.635742,298.688141 498.377411,296.055206 502.000000,296.000000 
"/>
<path fill="none" opacity="1.000000" stroke="#000000" stroke-linecap="round" stroke-linejoin="round" stroke-width="5.000000"
	d="
M376.500000,306.000000 
	C371.693848,306.437378 367.645447,308.870819 363.510468,311.020111 
	C359.083557,313.321167 354.594879,315.359741 349.499786,315.492096 
	C343.712616,315.642456 342.559143,314.463287 342.500000,308.500000 
"/>
<path fill="none" opacity="1.000000" stroke="#000000" stroke-linecap="round" stroke-linejoin="round" stroke-width="5.000000"
	d="
M282.500000,139.500000 
	C281.500000,141.666656 281.034119,144.430969 279.401642,145.889954 
	C274.127899,150.603165 274.653595,157.052048 273.534515,163.006485 
	C272.687073,167.515442 274.722961,169.521011 279.499908,169.533600 
	C281.676300,169.539337 283.748535,169.168747 285.478943,167.969620 
	C295.280487,161.177551 303.995605,153.496597 306.500000,141.000000 
"/>
<path fill="none" opacity="1.000000" stroke="#000000" stroke-linecap="round" stroke-linejoin="round" stroke-width="5.000000"
	d="
M167.500000,256.500000 
	C167.399307,257.183167 167.569016,257.811493 167.041412,258.530396 
	C163.822128,262.917114 155.288239,265.311188 150.506973,262.985687 
	C148.631027,262.073273 146.425690,261.375458 145.085983,259.920807 
	C142.405823,257.010742 139.252197,255.942688 135.500000,256.000000 
"/>
<path fill="none" opacity="1.000000" stroke="#000000" stroke-linecap="round" stroke-linejoin="round" stroke-width="5.000000"
	d="
M222.000000,144.000000 
	C222.805069,146.117554 222.484161,148.327042 222.481735,150.499985 
	C222.479050,152.897308 223.029434,155.037491 224.477158,157.016708 
	C226.919861,160.356186 228.220993,160.596146 230.958420,157.463654 
	C232.681473,155.491913 233.836823,153.025635 235.550034,151.043243 
	C237.001373,149.363892 237.763565,146.811371 240.500000,146.500000 
"/>
<path fill="none" opacity="1.000000" stroke="#000000" stroke-linecap="round" stroke-linejoin="round" stroke-width="5.000000"
	d="
M496.500000,305.500000 
	C493.626740,308.693634 489.452759,307.331940 485.998932,308.496857 
	C478.678467,310.966003 471.102142,312.292999 463.500000,313.500000 
"/>
<path fill="none" opacity="1.000000" stroke="#000000" stroke-linecap="round" stroke-linejoin="round" stroke-width="6.000000"
	d="
M324.000000,144.500000 
	C320.906250,140.447906 315.927765,141.180283 311.971405,140.789886 
	C306.053162,140.205902 300.424835,138.334366 294.508514,137.887283 
	C290.962128,137.619278 287.482574,137.238693 284.004608,138.020462 
	C280.037201,138.912247 276.501038,136.563705 272.488190,136.793961 
	C268.835083,137.003586 265.121307,137.124237 261.494781,137.184067 
	C257.038239,137.257584 252.434052,137.568558 248.022491,137.056290 
	C244.291443,136.623047 243.191574,137.972946 242.482376,140.995865 
	C241.086060,146.947525 241.691467,152.990845 241.454697,158.998215 
	C241.377045,160.968384 242.100342,162.734116 243.559158,163.362686 
	C245.121780,164.035950 246.627441,162.678314 248.037491,161.546722 
	C255.457581,155.591965 258.555573,147.374405 260.500000,138.500000 
"/>
<path fill="none" opacity="1.000000" stroke="#000000" stroke-linecap="round" stroke-linejoin="round" stroke-width="5.000000"
	d="
M333.500000,161.000000 
	C333.833313,162.333328 334.307465,163.649185 334.475555,165.003036 
	C335.188934,170.748672 339.968292,173.330566 343.848541,169.352280 
	C348.626556,164.453537 355.096008,160.592941 356.500000,153.000000 
"/>
<path fill="none" opacity="1.000000" stroke="#000000" stroke-linecap="round" stroke-linejoin="round" stroke-width="5.000000"
	d="
M339.000000,148.000000 
	C336.198975,154.365005 333.436035,160.725983 327.530365,165.041550 
	C326.061462,166.114960 324.732666,167.341217 323.001251,168.003250 
	C316.814178,170.369049 314.240326,169.086258 312.000000,162.500000 
"/>
<path fill="none" opacity="1.000000" stroke="#000000" stroke-linecap="round" stroke-linejoin="round" stroke-width="5.000000"
	d="
M273.500000,154.500000 
	C270.475128,154.849182 268.509094,157.192322 265.982391,158.465027 
	C261.774445,160.584579 258.617401,159.602722 255.500000,155.500000 
"/>
<path fill="none" opacity="1.000000" stroke="#000000" stroke-linecap="round" stroke-linejoin="round" stroke-width="6.000000"
	d="
M88.500000,208.500000 
	C87.693916,214.663635 89.918945,220.490494 90.706337,226.332657 
	C87.965759,227.892731 85.201691,227.446869 82.500000,227.500000 
"/>
<path fill="none" opacity="1.000000" stroke="#000000" stroke-linecap="round" stroke-linejoin="round" stroke-width="10.000000"
	d="
M224.000000,380.000000 
	C229.911713,377.423615 235.423111,377.699402 241.602615,380.251526 
	C247.067810,382.508728 253.384125,382.876160 259.500000,382.500000 
"/>
<path fill="none" opacity="1.000000" stroke="#000000" stroke-linecap="round" stroke-linejoin="round" stroke-width="5.000000"
	d="
M642.000000,263.500000 
	C636.481018,260.359711 631.497070,262.747589 626.500000,265.000000 
"/>
<path fill="none" opacity="1.000000" stroke="#000000" stroke-linecap="round" stroke-linejoin="round" stroke-width="5.000000"
	d="
M127.500000,439.500000 
	C121.167282,440.083649 124.462242,445.491089 123.100914,448.544983 
	C122.632721,449.595337 123.333336,451.166656 123.500000,452.500000 
"/>
<path fill="none" opacity="1.000000" stroke="#000000" stroke-linecap="round" stroke-linejoin="round" stroke-width="6.000000"
	d="
M298.500000,159.000000 
	C301.749695,164.822601 309.778351,165.137955 313.475647,159.484070 
	C316.421143,154.979843 319.862518,150.838852 322.883026,146.420029 
	C324.916016,143.445862 327.023010,143.167648 330.003662,143.986725 
	C343.363556,147.657928 356.703461,151.371933 369.017944,157.966476 
	C369.207642,158.068054 369.666656,157.666672 370.000000,157.500000 
"/>
<path fill="none" opacity="1.000000" stroke="#000000" stroke-linecap="round" stroke-linejoin="round" stroke-width="5.000000"
	d="
M353.000000,161.499985 
	C353.666687,162.499985 354.822052,163.460144 354.907440,164.507538 
	C355.153473,167.525177 357.525360,168.408310 359.491394,168.316132 
	C361.571411,168.218613 364.039368,168.160248 365.624908,165.576660 
	C367.042694,163.266464 367.991180,160.733047 369.500000,158.500000 
"/>
<path fill="none" opacity="1.000000" stroke="#000000" stroke-linecap="round" stroke-linejoin="round" stroke-width="5.000000"
	d="
M150.500000,447.500000 
	C149.795013,452.510132 148.828598,457.426880 145.500000,461.500000 
"/>
<path fill="none" opacity="1.000000" stroke="#000000" stroke-linecap="round" stroke-linejoin="round" stroke-width="5.000000"
	d="
M252.000000,452.000000 
	C250.879074,456.511871 248.209091,460.622101 248.500000,465.500000 
"/>
<path fill="none" opacity="1.000000" stroke="#000000" stroke-linecap="round" stroke-linejoin="round" stroke-width="5.000000"
	d="
M385.500000,159.750000 
	C383.355682,160.947723 382.021545,163.109299 381.118134,165.054855 
	C377.104095,173.699600 371.034760,174.743729 365.000000,167.500000 
"/>
<path fill="none" opacity="1.000000" stroke="#000000" stroke-linecap="round" stroke-linejoin="round" stroke-width="5.000000"
	d="
M205.500000,448.500000 
	C204.466202,448.665894 202.925964,447.893097 202.985077,450.000427 
	C203.050476,452.331940 203.000000,454.666656 203.000000,457.000000 
"/>
<path fill="none" opacity="1.000000" stroke="#000000" stroke-linecap="round" stroke-linejoin="round" stroke-width="5.000000"
	d="
M191.000000,449.500000 
	C190.500000,452.833344 190.000000,456.166656 189.500000,459.500000 
"/>
<path fill="none" opacity="1.000000" stroke="#000000" stroke-linecap="round" stroke-linejoin="round" stroke-width="5.000000"
	d="
M164.000000,447.500000 
	C163.911163,451.210571 161.158005,453.988647 160.500000,457.500000 
"/>
<path fill="none" opacity="1.000000" stroke="#000000" stroke-linecap="round" stroke-linejoin="round" stroke-width="5.000000"
	d="
M271.500000,456.500000 
	C271.618713,459.795990 269.076569,462.601837 269.750000,466.000000 
"/>
<path fill="none" opacity="1.000000" stroke="#000000" stroke-linecap="round" stroke-linejoin="round" stroke-width="5.000000"
	d="
M645.500000,262.500000 
	C640.912109,263.842926 639.338257,268.032440 637.000000,271.500000 
"/>
</svg>